<svg width="197" height="196" viewBox="0 0 197 196" fill="none" xmlns="http://www.w3.org/2000/svg">
<path d="M85.5884 22.4892L70.5783 42.3905L40.2772 82.6014C39.4286 83.7235 38.968 85.0911 38.9649 86.4979L38.9082 117.155L96.5964 160.64L108.508 144.832C109.536 143.463 109.98 141.743 109.741 140.048C109.503 138.353 108.603 136.821 107.237 135.789L46.8081 90.2451C46.1271 89.7276 45.6782 88.962 45.5592 88.115C45.4401 87.268 45.6606 86.4084 46.1725 85.7232L73.8687 48.9602L90.8372 26.4781L85.5884 22.4892Z" fill="white" stroke="white" stroke-width="3.0625"/>
<path d="M111.843 172.903L126.849 152.98L157.158 112.768C157.993 111.634 158.439 110.261 158.43 108.854L158.494 78.1953L100.829 34.715L88.9249 50.5215C87.8951 51.8897 87.4505 53.6107 87.6888 55.3065C87.9272 57.0022 88.8289 58.5341 90.1959 59.5654L150.618 105.11C151.299 105.627 151.747 106.393 151.866 107.24C151.985 108.087 151.765 108.947 151.253 109.632L123.557 146.395L106.593 168.907L111.843 172.903Z" fill="white" stroke="white" stroke-width="3.0625"/>
</svg>
