<svg width="227" height="40" viewBox="0 0 227 40" fill="none" xmlns="http://www.w3.org/2000/svg">
<path d="M128.552 32.6136H133.189V5.03625H143.817V0.665583H117.925V5.03625H128.552V32.6136Z" fill="white"/>
<path d="M146.48 32.6136H166.891V28.243H151.116V18.3701H164.228V13.9995H151.116V5.03625H166.891V0.665583H146.48V32.6136Z" fill="white"/>
<path d="M183.539 33.2792C190.905 33.2792 195.852 29.2635 197.738 22.9627L193.034 21.698C191.77 26.1575 188.597 28.8642 183.539 28.8642C176.75 28.8642 173.289 23.961 173.333 16.6396C173.355 9.31818 176.75 4.41504 183.539 4.41504C188.597 4.41504 191.77 7.12175 193.034 11.5812L197.738 10.3166C195.852 4.01569 190.905 0 183.539 0C173.954 0 168.43 6.76677 168.43 16.6396C168.43 26.5124 173.954 33.2792 183.539 33.2792Z" fill="white"/>
<path d="M201.73 32.6136H206.367V18.8138H222.341V32.6136H227V0.665583H222.341V14.4432H206.367V0.665583H201.73V32.6136Z" fill="white"/>
<path d="M108.64 0.679871H106.326H87.8352H83.215H79.7354C79.1035 0.679871 78.5913 1.19209 78.5913 1.82396V16.8707V23.8086V39.996L87.8352 33.0581V16.8707V4.13548C87.8352 3.50362 88.3475 2.99139 88.9793 2.99139H105.182C105.814 2.99139 106.326 3.50362 106.326 4.13548V21.0753L90.1488 12.2442L115.574 33.0581V28.435V26.1201V1.82396C115.574 1.19209 115.062 0.679871 114.43 0.679871H108.64Z" fill="white"/>
<path d="M27.7408 0.680359H10.0094C9.51399 0.680359 9.032 0.841113 8.63582 1.13847L0.00225184 7.6183L0 33.0553H9.24394L9.2461 4.13588C9.24615 3.50405 9.75836 2.99188 10.3902 2.99188H26.5967C27.2286 2.99188 27.7408 3.50411 27.7408 4.13597V30.7563L36.9847 23.8184V1.82444C36.9847 1.19258 36.4725 0.680359 35.8407 0.680359H32.3611H27.7408Z" fill="white"/>
<path d="M67.0342 0.679871H49.3059C48.8107 0.679871 48.3288 0.840536 47.9327 1.13774L39.2957 7.61781V26.1201V30.7465V33.0581L64.7241 12.2442L48.543 21.0753V4.13548C48.543 3.50362 49.0552 2.99139 49.687 2.99139H65.8901C66.522 2.99139 67.0342 3.50362 67.0342 4.13548V24.2441L76.2781 17.3061V1.82396C76.2781 1.1921 75.7659 0.679871 75.1341 0.679871H71.6579H67.0342Z" fill="white"/>
</svg>
