<?xml version="1.0" encoding="utf-8"?>
<!-- Generator: Adobe Illustrator 22.0.0, SVG Export Plug-In . SVG Version: 6.00 Build 0)  -->
<svg version="1.1" id="Layer_2_1_" xmlns="http://www.w3.org/2000/svg" xmlns:xlink="http://www.w3.org/1999/xlink" x="0px" y="0px"
	 viewBox="0 0 2400 2400" style="enable-background:new 0 0 2400 2400;" xml:space="preserve">
<style type="text/css">
	.st0{fill:none;stroke:#010101;stroke-width:3;}
</style>
<path class="st0" d="M1487.6,393.5c102.3-11.1,212.1,8,291.4,73.7c162.4,134.5,137.5,396,259.3,568.1
	c70.3,99.3,190.1,161.6,311.8,162c-126.3,52.9-246.4,123.7-345.1,218.7c-90.5,87.1-160.9,192.5-241.1,289.2
	s-174.3,187.5-292.2,230.8c-81.4,29.8-169.5,35.3-256.2,37c-98.9,1.9-201-1.4-291.3-41.7s-166.9-125.9-168.7-224.8
	c-1.4-76.5,40.5-146.9,53.5-222.4c21.1-122.1-42.8-254.3-151.6-313.6c-66.9-36.5-145.6-46.4-213.1-81.9
	c-117.7-62-185.7-200.4-177.5-333.2S352.5,499.2,460,420.8c50.3-36.7,108.6-65,170.7-69.8c66.5-5.2,133.5,16.6,199.6,7.4
	c76.8-10.8,145.5-66.6,171.8-139.6c15.8,92.2,60.5,253.8,178.2,262.2c42.5,3,88.3-30,127.1-43.8
	C1365.6,416.7,1426,400.2,1487.6,393.5z"/>
</svg>
