<?xml version="1.0" encoding="utf-8"?>
<!-- Generator: Adobe Illustrator 22.0.0, SVG Export Plug-In . SVG Version: 6.00 Build 0)  -->
<svg version="1.1" id="Layer_3" xmlns="http://www.w3.org/2000/svg" xmlns:xlink="http://www.w3.org/1999/xlink" x="0px" y="0px"
	 viewBox="0 0 2400 2400" style="enable-background:new 0 0 2400 2400;" xml:space="preserve">
<style type="text/css">
	.st0{fill:none;stroke:#010101;stroke-width:3;}
</style>
<path class="st0" d="M1367.5,379.5c38.1-88.5,61.9-192.9,142.2-246.2c42.5-28.2,94.5-37,145-44.1c54.8-7.7,110.9-14.1,165.2-3.3
	s107.3,41.5,131.9,91.1c14.1,28.4,18,60.8,19.2,92.5c2.8,71.7-7.1,143.9-29.1,212.2c-26.4,82.2-69.4,174.8-25,248.8
	c51.3,85.6,176.3,77.5,265.8,121.5c39,19.2,74.9,55.3,74.1,98.8c-0.4,21.7-9.8,42-19,61.6c-59.7,126.8-127.6,262.4-252.5,326
	c-84.2,42.9-183.6,46.7-269.7,85.5c-123.8,55.9-205.1,176.9-262.9,299.7c-57.8,122.9-99.4,254.6-176.3,366.4
	c-42,61-97.5,117.2-168.7,137.5c-108.8,30.9-223.8-30-304.6-109c-80.8-79.1-141.7-177.5-227.7-251c-42.3-36.1-90.1-65.6-141.3-87.2
	c-104.8-44.1-238.1-67.8-282.4-172.5c-25.8-60.9-10.8-130.8,7.7-194.3c29.4-101.3,67-200.3,112.1-295.7
	c33.3-70.5,74-142.4,141.1-181.9c51.8-30.5,113.4-38.2,172.5-49.1c227.3-42,496.6-146.5,658.5-318.5
	C1295.4,513.4,1337.6,449,1367.5,379.5z"/>
</svg>
