<?xml version="1.0" encoding="utf-8"?>
<!-- Generator: Adobe Illustrator 22.0.0, SVG Export Plug-In . SVG Version: 6.00 Build 0)  -->
<svg version="1.1" id="Layer_2_1_" xmlns="http://www.w3.org/2000/svg" xmlns:xlink="http://www.w3.org/1999/xlink" x="0px" y="0px"
	 viewBox="0 0 2400 2400" style="enable-background:new 0 0 2400 2400;" xml:space="preserve">
<style type="text/css">
	.st0{fill:none;stroke:#010101;stroke-width:3;}
</style>
<path class="st0" d="M1590,329.5c56.6,73.1,114.5,147.5,191.4,198.8c106.5,71.1,245.9,95.6,328.9,193.2
	c92,108.2,73.3,292.1-38.6,379.6c-53.6,41.9-123.6,63.6-166,116.8c-36,45.2-45.5,105.4-53.1,162.7c-7.1,54-13.3,110.7,7,161.3
	c22.4,55.8,73.4,95.2,101.7,148.3c40.1,75.4,28.3,170.5-12.1,245.7s-106,133.7-174,185.3c-42.9,32.6-87.7,63.4-137.1,84.8
	c-83,35.9-175.2,43.8-265.6,47.9c-250.6,11.3-520.9-9.7-716.9-166.2c70.2-14.1,106.4-100.6,89.4-170.2s-71.4-123.4-127.5-168
	s-117.4-85.3-158.2-144.2c-37.5-54.2-54.6-119.7-69.1-184c-20.7-92-33.3-200.7,31.2-269.6c31.7-33.9,77.2-51.6,112.2-82.1
	c61.4-53.5,83.5-140.2,83.2-221.6s-19.5-161.5-26-242.6c-2.6-33.1-3-66.9,6.7-98.7C621.7,427,707.2,377.2,790.4,374
	c83.2-3.3,163.5,31.7,234.1,75.8c97.3,60.8,170.2,157.5,290.6,107.3c54.7-22.8,103.4-58,147.7-97
	C1474.6,449.7,1595.5,336.6,1590,329.5z"/>
</svg>
