<?xml version="1.0" encoding="utf-8"?>
<!-- Generator: Adobe Illustrator 21.1.0, SVG Export Plug-In . SVG Version: 6.00 Build 0)  -->
<svg version="1.1" id="Layer_2" xmlns="http://www.w3.org/2000/svg" xmlns:xlink="http://www.w3.org/1999/xlink" x="0px" y="0px"
	 viewBox="0 0 612 1008" style="enable-background:new 0 0 612 1008;" xml:space="preserve">
<style type="text/css">
	.st0{fill:none;stroke:#231F20;stroke-width:6;stroke-miterlimit:10;}
</style>
<path class="st0" d="M417.7,212.6c40.2,11.6,51.1,63.6,47.8,105.3c-3.3,41.7-12.3,88.2,12.5,121.9c29.5,40.2,96,44.8,116.1,90.5
	c9.5,21.6,5,47.6-7.4,67.7c-12.4,20.1-31.7,35.1-52.2,46.8c-38.1,21.8-80.9,34-120.3,53.3c-44,21.6-83.1,51.8-121.8,81.7
	c-14.6-36.4-57.8-53.5-97-54s-77.7,11.3-116.8,14.2c-33.1,2.4-75.2-9.3-79.6-42.2c-2.5-18.6,8.9-36,19.7-51.4
	c15.6-22.2,31.2-44.4,46.8-66.6c14.7-20.9,29.9-43.1,31.8-68.6c2.9-38-24.1-70.9-48.3-100.3C24.6,381.6,0.2,345.4,9,308.4
	c8.7-36.4,45.6-57.7,79-74.6c17.9-9.1,37.2-18.4,57.1-15.9c45.9,5.9,86,45.6,135.4,41.5C328.8,255.3,366.5,197.8,417.7,212.6z"/>
</svg>
