<?xml version="1.0" encoding="utf-8"?>
<!-- Generator: Adobe Illustrator 22.0.0, SVG Export Plug-In . SVG Version: 6.00 Build 0)  -->
<svg version="1.1" id="Layer_3" xmlns="http://www.w3.org/2000/svg" xmlns:xlink="http://www.w3.org/1999/xlink" x="0px" y="0px"
	 viewBox="0 0 2400 2400" style="enable-background:new 0 0 2400 2400;" xml:space="preserve">
<style type="text/css">
	.st0{fill:none;stroke:#010101;stroke-width:3;}
</style>
<path class="st0" d="M1490,312.8c72.3,6.3,146.5,46.9,170.7,115.3c30.4,85.9-25.2,179.2-17,269.9c7,77.4,59.6,143,116.6,195.9
	c125.9,116.6,290.6,197.3,462.3,198.9c-136.5,80.4-225.6,235.7-226.1,394.2c-0.2,57.3,10.4,114,13.4,171.2
	c5,93.8-10.5,188.7-45.1,276c-25.2,63.6-62.2,125.1-118.9,163.3c-57.1,38.4-128.1,49.3-196.7,54.5c-131.7,9.9-264.6,2.4-394.3-22.2
	c-102.7-19.5-216.1-60.7-255.9-157.3c-29.2-70.9-9.9-152.6-26.2-227.5c-17.1-78.3-72.3-143.6-135.7-192.6
	c-95.2-73.6-209.7-116.7-318.2-168.7s-216.5-117.7-280-219.9S170.4,914.5,256,830c30.3-29.9,68.9-49.7,103.2-74.9
	c86.7-63.5,144.7-160.7,175.6-263.6s36.5-211.8,33.5-319.2c90.3,88.7,212,140.7,336.4,163.9c103.4,19.3,209.3,19.8,314,13.4
	C1310.2,344.1,1397.7,304.8,1490,312.8z"/>
</svg>
