<?xml version="1.0" encoding="utf-8"?>
<!-- Generator: Adobe Illustrator 22.0.0, SVG Export Plug-In . SVG Version: 6.00 Build 0)  -->
<svg version="1.1" xmlns="http://www.w3.org/2000/svg" xmlns:xlink="http://www.w3.org/1999/xlink" x="0px" y="0px"
	 viewBox="0 0 2400 2400" style="enable-background:new 0 0 2400 2400;" xml:space="preserve">
<style type="text/css">
	.st0{display:none;}
	.st1{display:inline;fill:none;stroke:#010101;stroke-width:3;}
	.st2{fill:none;stroke:#000000;stroke-width:3;stroke-miterlimit:10;}
</style>
<g id="Layer_3" class="st0">
	<line class="st1" x1="1200" y1="0" x2="1200" y2="2400"/>
</g>
<g id="Layer_2">
	<path class="st2" d="M1480.6,273.7c87.4,46,158.6,118,243.9,167.7c146.7,85.4,322.9,98.9,492.3,110.5
		c-67.5,93.7-93.7,216.1-70.3,329.2c12.7,61.7,39.2,119.6,57.5,179.8c21.8,71.9,32,147.4,29.9,222.5c-2.3,84.2-27.6,178.7-102,218.3
		c-29.1,15.4-62.3,20.5-94.8,25.9c-163.7,27.4-338.4,79.4-434.6,214.7c-47.5,66.8-70.7,147.3-101,223.5
		c-30.3,76.2-71.8,153-141.9,195.5c-83.5,50.6-189.9,42-284.7,18.2c-108.3-27.2-220.5-79.7-269.8-179.8
		c-41.9-85-29.8-186.5-57.1-277.2c-54.3-180.2-244.5-276.4-373.3-413.6c-13.3-14.1-26.8-31.7-23.6-50.8
		c2.1-12.4,10.9-22.4,19.5-31.6c76.7-82.1,162.5-155.6,235.1-241.4s132.6-187.1,144.7-298.8c14-129.1-32.4-276.9,47.8-379
		c46.4-59.1,125.8-84.6,201-83.5c83.1,1.2,164,52,243,28.3C1325.4,227,1402.3,232.4,1480.6,273.7z"/>
</g>
</svg>
